<?xml version="1.0" encoding="utf-8"?>
<!-- Generator: Adobe Illustrator 23.1.1, SVG Export Plug-In . SVG Version: 6.00 Build 0)  -->
<svg version="1.1" id="Ebene_1" xmlns="http://www.w3.org/2000/svg" xmlns:xlink="http://www.w3.org/1999/xlink" x="0px" y="0px"
	 viewBox="0 0 75.3 75.1" style="enable-background:new 0 0 75.3 75.1;" xml:space="preserve">
<style type="text/css">
	.st0{fill:#FFFFFF;}
</style>
<path class="st0" d="M32.2,10.7c11.8,0,21.5,9.6,21.5,21.5c0,4.5-1.4,8.7-4,12.4l-2.1,3l-3,2.1c-3.7,2.6-7.9,4-12.4,4
	c-11.8,0-21.5-9.6-21.5-21.5S20.4,10.7,32.2,10.7 M32.2,0C14.4,0,0,14.4,0,32.2s14.4,32.2,32.2,32.2c6.9,0,13.3-2.2,18.6-6
	l15.1,15.1c1,1,2.4,1.6,3.8,1.6s2.8-0.5,3.8-1.6l0.1-0.1c2.1-2.1,2.4-5.6,0-7.6l-15.1-15c3.7-5.3,6-11.7,6-18.6
	C64.4,14.4,50,0,32.2,0L32.2,0z"/>
</svg>
