<?xml version="1.0" encoding="utf-8"?>
<!-- Generator: Adobe Illustrator 23.1.1, SVG Export Plug-In . SVG Version: 6.00 Build 0)  -->
<svg version="1.1" id="Ebene_1" xmlns="http://www.w3.org/2000/svg" xmlns:xlink="http://www.w3.org/1999/xlink" x="0px" y="0px"
	 viewBox="0 0 32 32" style="enable-background:new 0 0 32 32;" xml:space="preserve">
<style type="text/css">
	.st0{fill-rule:evenodd;clip-rule:evenodd;}
</style>
<path class="st0" d="M20,6c0-3.3,2.7-6,6-6s6,2.7,6,6s-2.7,6-6,6c-1.8,0-3.4-0.8-4.5-2.1L12,15.4c0,0.2,0,0.4,0,0.6
	c0,0.4,0,0.7-0.1,1.1l9.3,5.4C22.3,20.9,24,20,26,20c3.3,0,6,2.7,6,6s-2.7,6-6,6s-6-2.7-6-6c0-0.6,0.1-1.2,0.3-1.8L11.2,19
	c-1,1.8-3,3-5.2,3c-3.3,0-6-2.7-6-6s2.7-6,6-6c2.4,0,4.5,1.4,5.4,3.4l9-5.2C20.2,7.5,20,6.8,20,6z M26,2c-2.2,0-4,1.8-4,4s1.8,4,4,4
	s4-1.8,4-4S28.2,2,26,2z M26,22c-2.2,0-4,1.8-4,4s1.8,4,4,4s4-1.8,4-4S28.2,22,26,22z M2,16c0-2.2,1.8-4,4-4s4,1.8,4,4s-1.8,4-4,4
	S2,18.2,2,16z"/>
</svg>
